<svg xmlns="http://www.w3.org/2000/svg" width="current" height="current" viewBox="0 0 21 22" fill="none">
  
  <path fill-rule="evenodd" clip-rule="evenodd" d="M19.2513 1.39898C19.3553 1.65616 19.2813 1.95107 19.0682 2.12866L17.0932 3.77452C17.704 4.34782 18.418 5.15707 19.0391 6.13703C19.8781 7.4607 20.5745 9.13915 20.5745 11C20.5745 12.8649 19.8753 14.4777 19.0274 15.7213C18.4058 16.633 17.6915 17.3655 17.0768 17.8762L19.1109 19.9104C19.3602 20.1596 19.3602 20.5638 19.1109 20.813C18.8616 21.0623 18.4575 21.0623 18.2082 20.813L15.655 18.2599C15.5198 18.1246 15.4523 17.9359 15.4712 17.7456C15.49 17.5553 15.5932 17.3835 15.7523 17.2774C16.3244 16.896 17.2223 16.1026 17.9726 15.0021C18.7204 13.9053 19.2979 12.5394 19.2979 11C19.2979 9.4566 18.7177 8.01449 17.9609 6.82043C17.2036 5.62561 16.2966 4.72252 15.7145 4.26981C15.562 4.1512 15.4714 3.96989 15.4682 3.77672C15.4649 3.58355 15.5493 3.3993 15.6977 3.27561L16.7222 2.42186L8.75509 3.01202C7.79286 3.0833 6.91172 3.29798 6.21582 3.79287C4.42888 5.06365 2.2766 7.49801 2.2766 11C2.2766 15.5067 4.65922 16.9749 5.60655 17.1854C5.83397 17.236 6.01579 17.4064 6.08092 17.6301C6.14606 17.8537 6.08416 18.0951 5.91943 18.2599L3.36624 20.813C3.11697 21.0623 2.71282 21.0623 2.46355 20.813C2.21428 20.5638 2.21428 20.1596 2.46355 19.9104L4.33133 18.0426C2.79622 17.1994 1 15.0809 1 11C1 6.93144 3.50047 4.1574 5.47598 2.75252C6.44201 2.06552 7.58927 1.81828 8.66079 1.73891L18.6124 1.00176C18.8891 0.981262 19.1473 1.14181 19.2513 1.39898Z" fill="currentColor" stroke="currentColor" stroke-width="0.1" stroke-linecap="round" stroke-linejoin="round"/>
  <path d="M8.82254 9.72581C8.82254 10.0698 8.72948 10.379 8.58166 10.6008C8.43361 10.8228 8.23457 10.9524 8.02147 10.9524C7.80838 10.9524 7.60934 10.8228 7.46128 10.6008C7.31346 10.379 7.22041 10.0698 7.22041 9.72581C7.22041 9.38179 7.31346 9.07259 7.46128 8.85086C7.60934 8.62878 7.80838 8.49922 8.02147 8.49922C8.23457 8.49922 8.43361 8.62878 8.58166 8.85086C8.72948 9.07259 8.82254 9.38179 8.82254 9.72581Z" fill="currentColor" stroke="currentColor" stroke-width="0.1"/>
  <path d="M13.9285 9.72581C13.9285 10.0698 13.8354 10.379 13.6876 10.6008C13.5396 10.8228 13.3405 10.9524 13.1274 10.9524C12.9143 10.9524 12.7153 10.8228 12.5672 10.6008C12.4194 10.379 12.3264 10.0698 12.3264 9.72581C12.3264 9.38179 12.4194 9.07259 12.5672 8.85086C12.7153 8.62878 12.9143 8.49922 13.1274 8.49922C13.3405 8.49922 13.5396 8.62878 13.6876 8.85086C13.8354 9.07259 13.9285 9.38179 13.9285 9.72581Z" fill="currentColor" stroke="currentColor" stroke-width="0.1"/>
  <path fill-rule="evenodd" clip-rule="evenodd" d="M7.64072 13.3623C7.74582 13.1521 8.00143 13.0669 8.21163 13.172L8.54552 13.3389C9.79764 13.965 11.2828 13.9079 12.4832 13.1877C12.6848 13.0668 12.9462 13.1321 13.0671 13.3336C13.188 13.5352 13.1226 13.7966 12.9211 13.9175C11.4712 14.7874 9.67729 14.8563 8.16491 14.1001L7.83102 13.9332C7.62082 13.8281 7.53562 13.5725 7.64072 13.3623Z" fill="currentColor" stroke="currentColor" stroke-width="0.1" stroke-linecap="round"/>

  <path fill-rule="evenodd" clip-rule="evenodd" d="M19.2513 1.39898C19.3553 1.65616 19.2813 1.95107 19.0682 2.12866L17.0932 3.77452C17.704 4.34782 18.418 5.15707 19.0391 6.13703C19.8781 7.4607 20.5745 9.13915 20.5745 11C20.5745 12.8649 19.8753 14.4777 19.0274 15.7213C18.4058 16.633 17.6915 17.3655 17.0768 17.8762L19.1109 19.9104C19.3602 20.1596 19.3602 20.5638 19.1109 20.813C18.8616 21.0623 18.4575 21.0623 18.2082 20.813L15.655 18.2599C15.5198 18.1246 15.4523 17.9359 15.4712 17.7456C15.49 17.5553 15.5932 17.3835 15.7523 17.2774C16.3244 16.896 17.2223 16.1026 17.9726 15.0021C18.7204 13.9053 19.2979 12.5394 19.2979 11C19.2979 9.4566 18.7177 8.01449 17.9609 6.82043C17.2036 5.62561 16.2966 4.72252 15.7145 4.26981C15.562 4.1512 15.4714 3.96989 15.4682 3.77672C15.4649 3.58355 15.5493 3.3993 15.6977 3.27561L16.7222 2.42186L8.75509 3.01202C7.79286 3.0833 6.91172 3.29798 6.21582 3.79287C4.42888 5.06365 2.2766 7.49801 2.2766 11C2.2766 15.5067 4.65922 16.9749 5.60655 17.1854C5.83397 17.236 6.01579 17.4064 6.08092 17.6301C6.14606 17.8537 6.08416 18.0951 5.91943 18.2599L3.36624 20.813C3.11697 21.0623 2.71282 21.0623 2.46355 20.813C2.21428 20.5638 2.21428 20.1596 2.46355 19.9104L4.33133 18.0426C2.79622 17.1994 1 15.0809 1 11C1 6.93144 3.50047 4.1574 5.47598 2.75252C6.44201 2.06552 7.58927 1.81828 8.66079 1.73891L18.6124 1.00176C18.8891 0.981262 19.1473 1.14181 19.2513 1.39898Z" fill="current" stroke="current" stroke-width="1" stroke-linecap="round" stroke-linejoin="round"/>
  <path d="M8.82254 9.72581C8.82254 10.0698 8.72948 10.379 8.58166 10.6008C8.43361 10.8228 8.23457 10.9524 8.02147 10.9524C7.80838 10.9524 7.60934 10.8228 7.46128 10.6008C7.31346 10.379 7.22041 10.0698 7.22041 9.72581C7.22041 9.38179 7.31346 9.07259 7.46128 8.85086C7.60934 8.62878 7.80838 8.49922 8.02147 8.49922C8.23457 8.49922 8.43361 8.62878 8.58166 8.85086C8.72948 9.07259 8.82254 9.38179 8.82254 9.72581Z" fill="current" stroke="current" stroke-width="0.5"/>
  <path d="M13.9285 9.72581C13.9285 10.0698 13.8354 10.379 13.6876 10.6008C13.5396 10.8228 13.3405 10.9524 13.1274 10.9524C12.9143 10.9524 12.7153 10.8228 12.5672 10.6008C12.4194 10.379 12.3264 10.0698 12.3264 9.72581C12.3264 9.38179 12.4194 9.07259 12.5672 8.85086C12.7153 8.62878 12.9143 8.49922 13.1274 8.49922C13.3405 8.49922 13.5396 8.62878 13.6876 8.85086C13.8354 9.07259 13.9285 9.38179 13.9285 9.72581Z" fill="current" stroke="current" stroke-width="0.5"/>
  <path fill-rule="evenodd" clip-rule="evenodd" d="M7.64072 13.3623C7.74582 13.1521 8.00143 13.0669 8.21163 13.172L8.54552 13.3389C9.79764 13.965 11.2828 13.9079 12.4832 13.1877C12.6848 13.0668 12.9462 13.1321 13.0671 13.3336C13.188 13.5352 13.1226 13.7966 12.9211 13.9175C11.4712 14.7874 9.67729 14.8563 8.16491 14.1001L7.83102 13.9332C7.62082 13.8281 7.53562 13.5725 7.64072 13.3623Z" fill="current" stroke="current" stroke-width="0.5" stroke-linecap="round"/>

</svg>